<svg viewBox="0 0 512 512" xmlns="http://www.w3.org/2000/svg" xmlns:svg="http://www.w3.org/2000/svg">
    <path style="fill:#0F4E5FFF; stroke:#0F4E5FFF;stroke-opacity:1;stroke-width:4;"
        d="m 197.11007,391.60449 c -1.31446,-0.72855 -2.98601,-2.4001 -3.71456,-3.71456 -2.64913,-4.77959 -1.67614,-8.00829 6.91399,-22.94306 4.57023,-7.94578 14.74869,-25.60592 22.61879,-39.24475 7.87011,-13.63883 14.12679,-24.98037 13.90375,-25.20341 -0.22304,-0.22305 -6.239,0.66781 -13.36879,1.97967 -51.99839,9.56759 -86.99611,9.70739 -115.91937,0.46306 -4.92587,-1.57439 -9.046743,-2.76778 -9.157496,-2.65198 -0.110753,0.1158 -2.778642,4.71054 -5.928642,10.21054 -7.271302,12.69592 -11.414118,17.80409 -17.179806,21.18301 -6.202715,3.63503 -23.846007,8.5722 -27.967655,7.82626 C 42.99718,338.72868 39,333.85375 39,329.37411 39,327.43581 43.41802,314.01646 49,299 54.5,284.20408 59,271.85838 59,271.56511 59,271.27184 48.979252,258.53722 36.731671,243.26595 1.7384484,199.63357 0.87173009,198.46257 0.27439914,194.00913 c -0.47016888,-3.50537 -0.14752272,-4.33031 2.84767716,-7.28089 3.017544,-2.9726 5.5052785,-3.89413 23.3181177,-8.63778 21.400925,-5.69917 25.823645,-6.01928 31.706022,-2.29482 1.555092,0.98461 13.380491,11.55839 26.278666,23.49728 C 97.323057,211.23182 108.55101,221 109.37588,221 c 0.82487,0 22.56525,-5.6416 48.31195,-12.53689 25.74669,-6.89529 48.56861,-13.0062 50.71537,-13.5798 l 3.90319,-1.0429 -9.90319,-5.768 c -5.44676,-3.1724 -24.17244,-14.00608 -41.61263,-24.07483 -27.76308,-16.02847 -31.91549,-18.74107 -33.36519,-21.79606 -1.38289,-2.91424 -1.463,-4.1326 -0.4861,-7.39321 1.89684,-6.33108 3.86191,-6.97026 36.11861,-11.74834 26.21586,-3.88327 30.4231,-4.26467 41.79613,-3.78894 12.73051,0.53252 21.82474,2.34831 33.14598,6.61806 6.62881,2.50003 45.06845,23.61783 46.18211,25.37132 1.30332,2.05214 0.91747,6.41206 -0.68519,7.74215 -0.82669,0.68609 -2.56127,1.24744 -3.85461,1.24744 -1.29334,0 -10.85445,-4.72085 -21.24692,-10.49078 -21.13091,-11.73194 -28.38138,-14.87693 -39.60323,-17.17842 -12.38906,-2.54087 -25.43381,-2.02342 -53.04933,2.10435 -13.61644,2.03528 -24.41644,4.0126 -24,4.39404 1.8021,1.65063 86.27297,49.92081 87.35941,49.92081 0.66193,0 37.42193,-9.71152 81.68889,-21.58115 44.26696,-11.86964 83.46066,-22.21183 87.09712,-22.98264 19.45313,-4.12345 38.90314,0.0438 61.19131,13.11043 4.57737,2.68353 10.73586,5.2458 15.50667,6.45164 23.73033,5.99789 38.90664,20.74896 37.09392,36.05454 -1.7302,14.60883 -16.69302,28.98222 -38.42852,36.91469 -4.47337,1.63258 -34.3725,9.99049 -66.44251,18.57314 -32.07002,8.58265 -60.6644,16.27692 -63.54308,17.09838 l -5.23397,1.49356 -17.18657,28.68371 c -21.75592,36.30975 -23.63622,39.07525 -32.79509,48.23411 -8.21685,8.21686 -15.9966,13.88399 -25.94753,18.90139 -10.81552,5.45334 -56.37354,23.05033 -59.57928,23.01276 -1.66298,-0.0195 -4.09907,-0.63152 -5.41353,-1.36007 z m 37.1494,-22.74709 c 29.98035,-11.90454 41.57189,-19.55166 53.32668,-35.18048 2.55518,-3.39731 19.03779,-30.25192 36.62801,-59.67692 17.59022,-29.425 32.69904,-54.0625 33.57516,-54.75 0.87611,-0.6875 2.40693,-1.25 3.40181,-1.25 1.81663,0 5.23373,2.79426 5.93387,4.85231 0.23924,0.70323 19.92461,-4.13857 54.375,-13.37404 29.7,-7.962 55.1824,-14.47678 56.62756,-14.47731 2.8173,-0.001 4.24463,1.2467 5.2732,4.60966 1.56545,5.11831 0.50492,5.49731 -62.83951,22.45689 -32.96631,8.82627 -60.27977,16.25853 -60.69659,16.51613 C 358.76101,239.26574 346.94772,259 347.64306,259 c 0.32277,0 4.69763,-1.10724 9.7219,-2.46054 5.02427,-1.35329 31.86004,-8.56709 59.63504,-16.03066 41.0454,-11.02952 52.19778,-14.3945 59.56837,-17.9734 17.93982,-8.71094 26.88721,-21.03871 22.01695,-30.33506 -3.61279,-6.89609 -14.59191,-13.62886 -27.08532,-16.60965 -3.85,-0.91857 -8.65865,-2.38259 -10.68589,-3.25337 -3.5987,-1.5458 -4.13444,-1.46206 -22.64682,3.53971 C 427.73878,178.69467 418.18287,181 416.93192,181 413.92373,181 411,178.24854 411,175.41759 c 0,-3.69312 3.88081,-5.72971 17.89162,-9.38928 14.96393,-3.90852 15.05013,-4.15781 2.82333,-8.16418 C 425.75368,155.91079 422.41487,155.5 412.5,155.5 h -12 L 254.42172,194.75 C 174.07866,216.3375 107.4661,234 106.39381,234 105.23582,234 93.898214,224.24541 78.472088,209.97686 64.18744,196.76413 51.433626,185.67683 50.130281,185.33841 c -2.035089,-0.52843 -32.033657,6.65573 -35.839182,8.58289 -0.765716,0.38777 9.59077,14.13027 28.25,37.48624 16.202396,20.28072 29.452547,37.59818 29.444782,38.48325 -0.0078,0.88506 -4.673257,14.09671 -10.367759,29.35921 -5.694501,15.2625 -9.919906,27.75 -9.389788,27.75 1.990618,0 12.40414,-3.3208 15.771666,-5.02947 1.925,-0.97674 4.465708,-2.83219 5.646018,-4.12321 2.052395,-2.24492 30.551012,-50.98803 30.080982,-51.44954 -0.12485,-0.12258 -4.115124,0.81638 -8.867277,2.08659 -10.549213,2.8197 -13.180681,2.10881 -13.666189,-3.69196 -0.38303,-4.57638 0.639504,-5.18677 14.78487,-8.82568 11.727106,-3.0168 14.999466,-2.74287 18.771596,1.57141 3.80697,4.35413 3.05501,8.9092 -3.28292,19.88669 -7.44088,12.88781 -7.31312,12.24141 -2.69303,13.62562 3.71922,1.11431 8.13297,0.0548 79.33214,-19.04396 41.4666,-11.12316 76.17984,-20.64005 77.14054,-21.14864 0.96071,-0.5086 2.62904,-2.65417 3.70741,-4.76795 2.80019,-5.48884 6.50683,-6.62893 10.04586,-3.0899 1.1,1.1 2,2.88974 2,3.97721 0,1.08746 -16.875,31.21787 -37.5,66.95646 -20.625,35.73859 -37.5,65.21271 -37.5,65.49804 0,0.63992 0.30521,0.52572 28.25947,-10.57431 z M 185.41282,239.50729 c -3.39082,-5.17504 1.51858,-11.22647 7.05959,-8.70181 C 197.94392,233.29846 196.0221,242 190,242 c -2.04503,0 -3.45643,-0.76696 -4.58718,-2.49271 z m 36.8671,-7.52738 C 217.0647,229.88139 219.15819,221 224.86807,221 c 5.49932,0 8.02335,6.10858 4.13193,10 -2.1749,2.1749 -3.33124,2.34352 -6.72008,0.97991 z m 33.1602,-11.43095 c -1.93561,-2.95412 -1.17882,-6.01884 2.00074,-8.10217 5.64509,-3.6988 11.7424,4.36243 6.7304,8.89822 -2.73009,2.4707 -6.83597,2.09635 -8.73114,-0.79605 z m 36.95958,-7.31427 c -2.25421,-1.50518 -3.41997,-5.05118 -2.47645,-7.53283 C 292.26368,199.54608 301,201.5732 301,208.27204 c 0,3.98091 -5.40214,7.09812 -8.6003,4.96265 z m 33.59774,-10.73777 C 325.31135,201.67023 324.75,199.87161 324.75,198.5 c 0,-1.37161 0.56135,-3.17023 1.24744,-3.99692 1.6306,-1.96475 6.437,-1.92578 8.43113,0.0683 1.85966,1.85966 2.07045,6.52955 0.37143,8.22857 -1.68806,1.68806 -7.31073,1.49446 -8.80256,-0.30308 z m 35.51999,-9.12235 c -2.46393,-2.46393 -1.58771,-7.49364 1.61734,-9.28389 2.35965,-1.31803 2.90785,-1.29278 5.25,0.24186 C 373.13082,187.44227 371.08701,195 365.5,195 c -1.29643,0 -3.08859,-0.73144 -3.98257,-1.62543 z M 177.5,296.97155 c 18.71586,-1.57184 39.50033,-4.82347 61.2085,-9.57578 l 7.20849,-1.57806 5.58224,-9.53479 c 3.07023,-5.24413 5.42517,-9.69186 5.23319,-9.88383 -0.71926,-0.71926 -113.60387,29.99988 -113.1198,30.78314 0.69521,1.12487 19.36731,1.00878 33.88738,-0.21068 z" />
</svg>