<?xml version="1.0" encoding="UTF-8" standalone="no"?>
<svg viewBox="0 0 512 512" xmlns="http://www.w3.org/2000/svg" xmlns:svg="http://www.w3.org/2000/svg">


   <g transform="matrix(3.7871099,0,0,3.7871099,-0.51357047,-0.70219671)">
      <path
         style="fill:#000;stroke:#000;stroke-opacity:1;stroke-width:3.16521052;stroke-dasharray:none;stroke-linecap:butt;stroke-linejoin:miter;paint-order:normal"
         d="M 64.955205,134.33419 C 63.645517,133.69477 49.655674,126.94631 33.866665,119.33761 18.077655,111.7289 4.9510154,105.26694 4.6963539,104.97769 4.2601323,104.48223 4.2333331,102.32656 4.2333331,67.73333 c 0,-34.593311 0.026798,-36.748883 0.4630208,-37.244143 C 4.9510154,30.200061 19.030155,23.264094 35.983331,15.075927 58.566901,4.1683527 67.054853,0.18756736 67.73333,0.18541922 68.419018,0.18324824 76.659717,4.0454799 99.483328,15.065934 116.4365,23.25183 130.51564,30.189117 130.77031,30.482127 c 0.43618,0.501872 0.46302,2.660582 0.46302,37.251203 0,34.59062 -0.0268,36.74933 -0.46302,37.2512 -0.49055,0.56442 -61.643606,30.16427 -62.772397,30.38367 -0.439536,0.0854 -1.46038,-0.26149 -3.042708,-1.03401 z M 65.881247,96.443032 V 62.711071 l -2.711979,-1.354106 c -1.491589,-0.744758 -2.920339,-1.538203 -3.175,-1.763211 -1.071553,-0.946777 -0.209926,-3.237507 1.217745,-3.237507 0.342338,0 1.915652,0.610009 3.496253,1.355576 2.643603,1.246983 2.941926,1.330949 3.723994,1.048149 0.467596,-0.169084 3.686548,-1.688351 7.153226,-3.376149 3.466678,-1.687797 6.624129,-3.072276 7.016557,-3.076621 1.330927,-0.01473 2.270787,1.355668 1.792507,2.61364 -0.212302,0.558395 -1.571089,1.320538 -7.534076,4.22586 L 69.585413,62.6913 v 33.761247 c 0,29.308193 0.05045,33.749963 0.382477,33.675703 0.210362,-0.0471 13.188174,-6.26975 28.839581,-13.82822 L 127.26458,102.55736 V 68.741181 c 0,-18.598901 -0.0418,-33.816183 -0.0929,-33.816183 -0.0511,0 -4.12901,1.946684 -9.06198,4.325964 l -8.96904,4.325965 -0.13229,12.465863 c -0.11258,10.607736 -0.19145,12.524439 -0.52917,12.858839 -0.6223,0.616184 -15.760225,7.827534 -16.431409,7.827534 -0.33006,0 -0.875673,-0.25888 -1.212474,-0.575288 L 90.222912,75.578588 V 63.353981 c 0,-9.468555 -0.07456,-12.281565 -0.330729,-12.477247 C 89.650727,50.692289 39.041996,26.216646 31.463069,22.61896 l -0.948387,-0.450196 -9.821058,4.723568 c -5.401581,2.597962 -9.737307,4.793806 -9.634945,4.879655 0.102362,0.08585 9.770643,4.773261 21.485069,10.416472 11.714427,5.643212 21.507317,10.443629 21.761978,10.667594 1.118249,0.983456 0.197325,3.235768 -1.322916,3.235467 C 52.566613,56.091437 42.877266,51.561868 30.34366,45.508187 18.29231,39.687433 8.3803574,34.924998 8.3170987,34.924998 c -0.063259,0 -0.1150158,15.214962 -0.1150158,33.811027 V 102.54705 L 36.710936,116.336 c 15.679869,7.58393 28.65768,13.80021 28.839581,13.81397 0.262985,0.0199 0.33073,-6.88441 0.33073,-33.706938 z M 18.520832,96.322279 c -2.692135,-1.313396 -5.10315,-2.64093 -5.357812,-2.950075 -0.858065,-1.041645 -0.480064,-2.329679 0.844737,-2.87843 0.753533,-0.312123 1.072817,-0.200299 5.632507,1.97271 2.658531,1.266975 5.101584,2.551389 5.429006,2.854255 0.714542,0.660952 0.772823,1.777518 0.132291,2.534495 -0.948363,1.120772 -1.501326,0.99389 -6.680729,-1.532955 z m 3.851812,-7.564534 c -4.939264,-2.396082 -9.077738,-4.505151 -9.196609,-4.686819 -0.841918,-1.286684 -0.160943,-2.909045 1.282332,-3.055041 0.56745,-0.0574 3.189369,1.080947 9.6215,4.177325 4.862822,2.340925 9.054187,4.448713 9.314146,4.683972 0.70283,0.636052 0.634557,2.318988 -0.115386,2.844269 -0.323421,0.226532 -0.888968,0.407587 -1.256771,0.402343 -0.367803,-0.0052 -4.709949,-1.969966 -9.649212,-4.366049 z m 77.375267,-19.833042 5.159379,-2.500718 0.0692,-10.325536 c 0.0381,-5.679044 -0.0329,-10.325535 -0.15782,-10.325535 -0.12488,0 -2.56704,1.129752 -5.427033,2.510559 l -5.199985,2.510559 v 10.321732 c 0,5.676953 0.0893,10.319015 0.198437,10.315695 0.109141,-0.0033 2.520156,-1.131361 5.357812,-2.506756 z M 97.829682,44.654002 c 3.092318,-1.49217 5.620088,-2.773582 5.617268,-2.847582 -0.007,-0.193007 -56.356532,-27.345372 -56.714531,-27.328412 -0.163926,0.0078 -2.834123,1.255251 -5.933772,2.772189 l -5.635726,2.758069 28.2576,13.659188 c 15.541679,7.512554 28.376662,13.668277 28.522183,13.679386 0.14552,0.01111 2.794661,-1.200669 5.886978,-2.692838 z m 18.586978,-8.947097 c 4.29286,-2.070495 7.88802,-3.837585 7.98924,-3.926867 0.10122,-0.08928 -12.60455,-6.337392 -28.235031,-13.884689 L 67.751806,4.1729907 59.512308,8.1563741 51.272809,12.139757 56.526507,14.67373 c 2.889534,1.393685 15.671666,7.579718 28.404739,13.746741 12.733072,6.167022 23.270104,11.176364 23.415624,11.131869 0.14552,-0.04449 3.77693,-1.77494 8.06979,-3.845435 z" />
   </g>
</svg>