<svg xmlns="http://www.w3.org/2000/svg" viewBox="0 0 24 24" width="24" height="24">
  <path d="M17.05 20.28c-.98 1.09-2.12.51-3.31.51-1.2 0-2.38.57-3.35-.51-2.37-2.76-.7-9.15 2.68-9.15 1.28 0 1.92.76 2.91.76.97 0 1.56-.77 2.97-.77 1.69 0 2.5 1.08 3.1 2.31-2.73 1.42-2.3 5.06.31 6.85-.74 1.76-1.61 2.31-2.61 3.01-.8-.74-1.18-1.5-1.77-2.38l-.93-.63z"/>
  <path d="M13.26 7.76c-.75-1.01-.75-1.65-.75-2.5C12.51 2.85 15.34 3 15.34 3c.01 1.5-.5 2.5-1.25 3.27-.64.67-1.87 1.22-1.87 1.22-.07-.06.26-.5.04-.73z"/>
</svg>